<svg width="144" height="124" viewBox="0 0 144 124" fill="none" xmlns="http://www.w3.org/2000/svg">
<path d="M104.52 114.243C107.558 114.25 110.015 116.365 110.01 118.969C110.004 121.573 107.537 123.679 104.5 123.673C101.462 123.667 99.0043 121.551 99.0099 118.947C99.0155 116.343 101.482 114.237 104.52 114.243Z" fill="#9EAF54"/>
<path d="M137.52 114.31C140.557 114.316 143.015 116.432 143.01 119.036C143.004 121.64 140.537 123.746 137.5 123.74C134.462 123.734 132.004 121.618 132.01 119.014C132.015 116.41 134.482 114.304 137.52 114.31Z" fill="#9EAF54"/>
<path d="M104.581 85.9545C107.618 85.9606 110.076 88.0765 110.071 90.6805C110.065 93.2844 107.598 95.3903 104.56 95.3841C101.523 95.3779 99.065 93.2621 99.0705 90.6581C99.0761 88.0542 101.543 85.9483 104.581 85.9545Z" fill="#9EAF54"/>
<path d="M38.5808 85.8206C41.6183 85.8267 44.0762 87.9426 44.0707 90.5465C44.0651 93.1505 41.5981 95.2564 38.5606 95.2502C35.523 95.244 33.0651 93.1281 33.0707 90.5242C33.0763 87.9203 35.5432 85.8144 38.5808 85.8206Z" fill="#9EAF54"/>
<path d="M137.581 86.0214C140.618 86.0276 143.076 88.1435 143.07 90.7474C143.065 93.3513 140.598 95.4572 137.56 95.4511C134.523 95.4449 132.065 93.329 132.07 90.7251C132.076 88.1212 134.543 86.0153 137.581 86.0214Z" fill="#9EAF54"/>
<path d="M71.5807 85.8875C74.6183 85.8937 77.0762 88.0096 77.0706 90.6135C77.065 93.2174 74.598 95.3233 71.5605 95.3171C68.5229 95.311 66.065 93.1951 66.0706 90.5912C66.0762 87.9873 68.5431 85.8814 71.5807 85.8875Z" fill="#9EAF54"/>
<path d="M104.641 57.6656C107.679 57.6718 110.137 59.7877 110.131 62.3916C110.126 64.9955 107.659 67.1014 104.621 67.0952C101.583 67.0891 99.1256 64.9732 99.1312 62.3693C99.1368 59.7653 101.604 57.6594 104.641 57.6656Z" fill="#9EAF54"/>
<path d="M38.6414 57.5317C41.679 57.5379 44.1369 59.6537 44.1313 62.2577C44.1257 64.8616 41.6588 66.9675 38.6212 66.9613C35.5836 66.9552 33.1257 64.8393 33.1313 62.2353C33.1369 59.6314 35.6039 57.5255 38.6414 57.5317Z" fill="#9EAF54"/>
<path d="M137.641 57.7326C140.679 57.7387 143.137 59.8546 143.131 62.4585C143.125 65.0625 140.659 67.1684 137.621 67.1622C134.583 67.156 132.126 65.0401 132.131 62.4362C132.137 59.8323 134.604 57.7264 137.641 57.7326Z" fill="#9EAF54"/>
<path d="M71.6413 57.5987C74.6789 57.6048 77.1368 59.7207 77.1312 62.3246C77.1256 64.9285 74.6587 67.0344 71.6211 67.0283C68.5836 67.0221 66.1257 64.9062 66.1312 62.3023C66.1368 59.6984 68.6038 57.5925 71.6413 57.5987Z" fill="#9EAF54"/>
<path d="M104.702 29.3767C107.739 29.3829 110.197 31.4988 110.192 34.1027C110.186 36.7066 107.719 38.8125 104.682 38.8064C101.644 38.8002 99.1862 36.6843 99.1918 34.0804C99.1974 31.4765 101.664 29.3706 104.702 29.3767Z" fill="#9EAF54"/>
<path d="M38.7021 29.2428C41.7396 29.249 44.1975 31.3649 44.1919 33.9688C44.1864 36.5727 41.7194 38.6786 38.6818 38.6725C35.6443 38.6663 33.1864 36.5504 33.192 33.9465C33.1975 31.3426 35.6645 29.2367 38.7021 29.2428Z" fill="#9EAF54"/>
<path d="M5.70213 29.1759C8.73969 29.182 11.1976 31.2979 11.192 33.9018C11.1864 36.5058 8.71947 38.6117 5.68191 38.6055C2.64435 38.5993 0.186451 36.4834 0.192032 33.8795C0.197614 31.2756 2.66457 29.1697 5.70213 29.1759Z" fill="#9EAF54"/>
<path d="M137.702 29.4437C140.739 29.4499 143.197 31.5658 143.192 34.1697C143.186 36.7736 140.719 38.8795 137.682 38.8733C134.644 38.8672 132.186 36.7513 132.192 34.1474C132.197 31.5434 134.664 29.4375 137.702 29.4437Z" fill="#9EAF54"/>
<path d="M71.702 29.3098C74.7395 29.3159 77.1974 31.4318 77.1919 34.0358C77.1863 36.6397 74.7193 38.7456 71.6818 38.7394C68.6442 38.7332 66.1863 36.6174 66.1919 34.0134C66.1975 31.4095 68.6644 29.3036 71.702 29.3098Z" fill="#9EAF54"/>
<path d="M104.763 1.08788C107.8 1.09404 110.258 3.20993 110.252 5.81385C110.247 8.41777 107.78 10.5237 104.742 10.5175C101.705 10.5113 99.2469 8.39545 99.2525 5.79153C99.258 3.18761 101.725 1.08171 104.763 1.08788Z" fill="#9EAF54"/>
<path d="M38.7627 0.95396C41.8003 0.960124 44.2582 3.07602 44.2526 5.67993C44.247 8.28385 41.78 10.3898 38.7425 10.3836C35.7049 10.3774 33.247 8.26153 33.2526 5.65761C33.2582 3.0537 35.7251 0.947797 38.7627 0.95396Z" fill="#9EAF54"/>
<path d="M5.76277 0.887002C8.80033 0.893165 11.2582 3.00906 11.2527 5.61297C11.2471 8.21689 8.78011 10.3228 5.74256 10.3166C2.705 10.3105 0.247092 8.19457 0.252674 5.59065C0.258256 2.98674 2.72521 0.880838 5.76277 0.887002Z" fill="#9EAF54"/>
<path d="M137.762 1.15484C140.8 1.161 143.258 3.27689 143.252 5.88081C143.247 8.48473 140.78 10.5906 137.742 10.5845C134.705 10.5783 132.247 8.46241 132.252 5.85849C132.258 3.25457 134.725 1.14867 137.762 1.15484Z" fill="#9EAF54"/>
<path d="M71.7626 1.02092C74.8002 1.02708 77.2581 3.14297 77.2525 5.74689C77.2469 8.35081 74.78 10.4567 71.7424 10.4505C68.7048 10.4444 66.2469 8.32849 66.2525 5.72457C66.2581 3.12065 68.7251 1.01476 71.7626 1.02092Z" fill="#9EAF54"/>
</svg>
