<svg width="32" height="30" viewBox="0 0 32 30" fill="none" xmlns="http://www.w3.org/2000/svg">
<g clip-path="url(#clip0_15_114)">
<path d="M32 14.9527C32 6.74519 24.836 0.0908203 16 0.0908203C7.164 0.0908203 0 6.74519 0 14.9527C0 22.3711 5.85067 28.519 13.5 29.6336V19.2489H9.43733V14.9513H13.5V11.6793C13.5 7.95518 15.8893 5.89682 19.544 5.89682C21.2933 5.89682 23.1253 6.18787 23.1253 6.18787V9.84512H21.1067C19.1187 9.84512 18.4987 10.9907 18.4987 12.1661V14.9527H22.936L22.2267 19.2501H18.4987V29.6348C26.1493 28.519 32 22.3699 32 14.9527Z" fill="white"/>
</g>
<defs>
<clipPath id="clip0_15_114">
<rect width="32" height="29.7236" fill="white"/>
</clipPath>
</defs>
</svg>
