<svg width="32" height="30" viewBox="0 0 32 30" fill="none" xmlns="http://www.w3.org/2000/svg">
<g clip-path="url(#clip0_15_110)">
<path d="M16 0C11.6533 0 11.1107 0.0185772 9.404 0.0891707C7.7 0.16348 6.54 0.412415 5.52 0.780244C4.468 1.15922 3.57467 1.66824 2.68533 2.4943C1.796 3.32037 1.24667 4.14892 0.84 5.12732C0.444 6.07476 0.174667 7.15224 0.096 8.73502C0.016 10.3203 0 10.8243 0 14.8618C0 18.8993 0.02 19.4033 0.096 20.9886C0.176 22.5701 0.444 23.6488 0.84 24.5963C1.248 25.5722 1.796 26.4032 2.68533 27.2293C3.57467 28.0541 4.46667 28.5656 5.52 28.9433C6.54133 29.31 7.70133 29.5613 9.404 29.6344C11.1107 29.7087 11.6533 29.7236 16 29.7236C20.3467 29.7236 20.8893 29.705 22.596 29.6344C24.2987 29.5601 25.46 29.31 26.48 28.9433C27.5307 28.5644 28.4253 28.0541 29.3147 27.2293C30.2027 26.4032 30.7533 25.5759 31.16 24.5963C31.5547 23.6488 31.8253 22.5701 31.904 20.9886C31.984 19.4033 32 18.8993 32 14.8618C32 10.8243 31.98 10.3203 31.904 8.73502C31.824 7.15347 31.5547 6.07352 31.16 5.12732C30.752 4.15015 30.2027 3.32037 29.3147 2.4943C28.4253 1.66824 27.5347 1.15798 26.48 0.780244C25.46 0.412415 24.2987 0.162242 22.596 0.0891707C20.8893 0.0148618 20.3467 0 16 0ZM16 2.67512C20.2707 2.67512 20.78 2.69493 22.4667 2.76306C24.0267 2.83117 24.8733 3.07144 25.436 3.27702C26.1853 3.54577 26.716 3.86778 27.2787 4.38671C27.8373 4.90687 28.184 5.40102 28.4733 6.09705C28.692 6.61969 28.9533 7.40612 29.024 8.85515C29.1 10.423 29.1173 10.8937 29.1173 14.8618C29.1173 18.8299 29.0973 19.3017 29.0187 20.8685C28.9373 22.3175 28.6773 23.1039 28.4573 23.6265C28.1587 24.3225 27.8187 24.8155 27.2587 25.3381C26.7 25.857 26.16 26.179 25.4187 26.4478C24.8587 26.6509 23.9987 26.8936 22.4387 26.9593C20.74 27.0299 20.24 27.0459 15.96 27.0459C11.6787 27.0459 11.1787 27.0274 9.48133 26.9544C7.92 26.8788 7.06 26.6372 6.5 26.4329C5.74133 26.1555 5.22 25.8397 4.66133 25.3196C4.1 24.8006 3.74133 24.299 3.46133 23.6105C3.24133 23.0903 2.98267 22.2915 2.90133 20.8425C2.84133 19.282 2.82 18.8002 2.82 14.8432C2.82 10.8851 2.84133 10.402 2.90133 8.82295C2.98267 7.37393 3.24133 6.57634 3.46133 6.05618C3.74133 5.35024 4.1 4.86724 4.66133 4.34584C5.22 3.82691 5.74133 3.49252 6.5 3.23367C7.06 3.02809 7.90133 2.78659 9.46133 2.71228C11.1613 2.65654 11.6613 2.63797 15.94 2.63797L16 2.67512ZM16 7.23026C11.46 7.23026 7.784 10.6485 7.784 14.8618C7.784 19.0788 11.464 22.4933 16 22.4933C20.54 22.4933 24.216 19.0751 24.216 14.8618C24.216 10.6448 20.536 7.23026 16 7.23026ZM16 19.8157C13.0533 19.8157 10.6667 17.5989 10.6667 14.8618C10.6667 12.1247 13.0533 9.90789 16 9.90789C18.9467 9.90789 21.3333 12.1247 21.3333 14.8618C21.3333 17.5989 18.9467 19.8157 16 19.8157ZM26.4613 6.92931C26.4613 7.9139 25.6 8.71272 24.5413 8.71272C23.4813 8.71272 22.6213 7.91267 22.6213 6.92931C22.6213 5.94595 23.4827 5.14713 24.5413 5.14713C25.5987 5.14589 26.4613 5.94595 26.4613 6.92931Z" fill="white"/>
</g>
<defs>
<clipPath id="clip0_15_110">
<rect width="32" height="29.7236" fill="white"/>
</clipPath>
</defs>
</svg>
