<svg width="1600" height="1064" viewBox="0 0 1600 1064" fill="none" xmlns="http://www.w3.org/2000/svg">
<path d="M-218.294 336.231L-224.786 335.916L-225.183 344.076L-217.142 342.628L-218.294 336.231ZM1612.68 13.095C1616.21 12.4588 1618.56 9.07888 1617.92 5.54592C1617.29 2.01283 1613.91 -0.335457 1610.37 0.300838L1612.68 13.095ZM1617.36 1052.44C892.988 614.62 436.54 389.945 159.896 296.75C21.7431 250.209 -72.4662 236.134 -133.086 245.35C-163.541 249.981 -186.042 260.57 -201.22 276.402C-216.445 292.283 -223.661 312.772 -224.786 335.916L-211.802 336.547C-210.792 315.776 -204.418 298.523 -191.835 285.398C-179.206 272.224 -159.681 262.543 -131.132 258.203C-73.743 249.477 17.9707 262.656 155.746 309.069C430.959 401.783 886.389 625.822 1610.64 1063.56L1617.36 1052.44ZM-217.142 342.628L1612.68 13.095L1610.37 0.300838L-219.446 329.834L-217.142 342.628Z" fill="#1F98B3"/>
</svg>
