<svg width="32" height="30" viewBox="0 0 32 30" fill="none" xmlns="http://www.w3.org/2000/svg">
<path d="M31.3307 7.66097C31.1499 7.02845 30.7934 6.45114 30.2968 5.98687C29.8003 5.5226 29.1811 5.18765 28.5013 5.01558C26.0067 4.39014 16 4.39014 16 4.39014C16 4.39014 5.99333 4.39014 3.49733 5.01558C2.81788 5.18795 2.19906 5.52302 1.70277 5.98726C1.20648 6.4515 0.850122 7.02865 0.669333 7.66097C0 9.99428 0 14.8615 0 14.8615C0 14.8615 0 19.7287 0.669333 22.062C0.850115 22.6946 1.20663 23.2719 1.70319 23.7361C2.19974 24.2004 2.8189 24.5353 3.49867 24.7074C5.99333 25.3328 16 25.3328 16 25.3328C16 25.3328 26.0067 25.3328 28.5027 24.7074C29.1825 24.5355 29.8017 24.2006 30.2983 23.7363C30.7949 23.272 31.1513 22.6946 31.332 22.062C32 19.7287 32 14.8615 32 14.8615C32 14.8615 32 9.99428 31.3307 7.66097ZM12.7267 19.2804V10.4426L21.0907 14.8615L12.7267 19.2804Z" fill="white"/>
</svg>
